<?xml version="1.0" encoding="utf-8" standalone="no"?>
<!DOCTYPE svg PUBLIC "-//W3C//DTD SVG 1.1//EN"
  "http://www.w3.org/Graphics/SVG/1.1/DTD/svg11.dtd">
<svg xmlns:xlink="http://www.w3.org/1999/xlink" width="852.288437pt" height="420.402187pt" viewBox="0 0 852.288437 420.402187" xmlns="http://www.w3.org/2000/svg" version="1.1">
 <metadata>
  <rdf:RDF xmlns:dc="http://purl.org/dc/elements/1.1/" xmlns:cc="http://creativecommons.org/ns#" xmlns:rdf="http://www.w3.org/1999/02/22-rdf-syntax-ns#">
   <cc:Work>
    <dc:type rdf:resource="http://purl.org/dc/dcmitype/StillImage"/>
    <dc:date>2025-06-19T15:28:34.279682</dc:date>
    <dc:format>image/svg+xml</dc:format>
    <dc:creator>
     <cc:Agent>
      <dc:title>Matplotlib v3.10.3, https://matplotlib.org/</dc:title>
     </cc:Agent>
    </dc:creator>
   </cc:Work>
  </rdf:RDF>
 </metadata>
 <defs>
  <style type="text/css">*{stroke-linejoin: round; stroke-linecap: butt}</style>
 </defs>
 <g id="figure_1">
  <g id="patch_1">
   <path d="M 0 420.402187 
L 852.288437 420.402187 
L 852.288437 0 
L 0 0 
z
" style="fill: #ffffff"/>
  </g>
  <g id="axes_1">
   <g id="patch_2">
    <path d="M 43.908438 393.379375 
L 845.088437 393.379375 
L 845.088437 21.935625 
L 43.908438 21.935625 
z
" style="fill: #ffffff"/>
   </g>
   <g id="matplotlib.axis_1">
    <g id="xtick_1">
     <g id="line2d_1">
      <path d="M 125.048677 393.379375 
L 125.048677 21.935625 
" clip-path="url(#p57e1d2da29)" style="fill: none; stroke: #cccccc; stroke-linecap: round"/>
     </g>
     <g id="text_1">
      <!-- Longbench-Chat -->
      <g style="fill: #262626" transform="translate(84.382192 410.887031) scale(0.11 -0.11)">
       <defs>
        <path id="ArialMT-4c" d="M 469 0 
L 469 4581 
L 1075 4581 
L 1075 541 
L 3331 541 
L 3331 0 
L 469 0 
z
" transform="scale(0.015625)"/>
        <path id="ArialMT-6f" d="M 213 1659 
Q 213 2581 725 3025 
Q 1153 3394 1769 3394 
Q 2453 3394 2887 2945 
Q 3322 2497 3322 1706 
Q 3322 1066 3130 698 
Q 2938 331 2570 128 
Q 2203 -75 1769 -75 
Q 1072 -75 642 372 
Q 213 819 213 1659 
z
M 791 1659 
Q 791 1022 1069 705 
Q 1347 388 1769 388 
Q 2188 388 2466 706 
Q 2744 1025 2744 1678 
Q 2744 2294 2464 2611 
Q 2184 2928 1769 2928 
Q 1347 2928 1069 2612 
Q 791 2297 791 1659 
z
" transform="scale(0.015625)"/>
        <path id="ArialMT-6e" d="M 422 0 
L 422 3319 
L 928 3319 
L 928 2847 
Q 1294 3394 1984 3394 
Q 2284 3394 2536 3286 
Q 2788 3178 2913 3003 
Q 3038 2828 3088 2588 
Q 3119 2431 3119 2041 
L 3119 0 
L 2556 0 
L 2556 2019 
Q 2556 2363 2490 2533 
Q 2425 2703 2258 2804 
Q 2091 2906 1866 2906 
Q 1506 2906 1245 2678 
Q 984 2450 984 1813 
L 984 0 
L 422 0 
z
" transform="scale(0.015625)"/>
        <path id="ArialMT-67" d="M 319 -275 
L 866 -356 
Q 900 -609 1056 -725 
Q 1266 -881 1628 -881 
Q 2019 -881 2231 -725 
Q 2444 -569 2519 -288 
Q 2563 -116 2559 434 
Q 2191 0 1641 0 
Q 956 0 581 494 
Q 206 988 206 1678 
Q 206 2153 378 2554 
Q 550 2956 876 3175 
Q 1203 3394 1644 3394 
Q 2231 3394 2613 2919 
L 2613 3319 
L 3131 3319 
L 3131 450 
Q 3131 -325 2973 -648 
Q 2816 -972 2473 -1159 
Q 2131 -1347 1631 -1347 
Q 1038 -1347 672 -1080 
Q 306 -813 319 -275 
z
M 784 1719 
Q 784 1066 1043 766 
Q 1303 466 1694 466 
Q 2081 466 2343 764 
Q 2606 1063 2606 1700 
Q 2606 2309 2336 2618 
Q 2066 2928 1684 2928 
Q 1309 2928 1046 2623 
Q 784 2319 784 1719 
z
" transform="scale(0.015625)"/>
        <path id="ArialMT-62" d="M 941 0 
L 419 0 
L 419 4581 
L 981 4581 
L 981 2947 
Q 1338 3394 1891 3394 
Q 2197 3394 2470 3270 
Q 2744 3147 2920 2923 
Q 3097 2700 3197 2384 
Q 3297 2069 3297 1709 
Q 3297 856 2875 390 
Q 2453 -75 1863 -75 
Q 1275 -75 941 416 
L 941 0 
z
M 934 1684 
Q 934 1088 1097 822 
Q 1363 388 1816 388 
Q 2184 388 2453 708 
Q 2722 1028 2722 1663 
Q 2722 2313 2464 2622 
Q 2206 2931 1841 2931 
Q 1472 2931 1203 2611 
Q 934 2291 934 1684 
z
" transform="scale(0.015625)"/>
        <path id="ArialMT-65" d="M 2694 1069 
L 3275 997 
Q 3138 488 2766 206 
Q 2394 -75 1816 -75 
Q 1088 -75 661 373 
Q 234 822 234 1631 
Q 234 2469 665 2931 
Q 1097 3394 1784 3394 
Q 2450 3394 2872 2941 
Q 3294 2488 3294 1666 
Q 3294 1616 3291 1516 
L 816 1516 
Q 847 969 1125 678 
Q 1403 388 1819 388 
Q 2128 388 2347 550 
Q 2566 713 2694 1069 
z
M 847 1978 
L 2700 1978 
Q 2663 2397 2488 2606 
Q 2219 2931 1791 2931 
Q 1403 2931 1139 2672 
Q 875 2413 847 1978 
z
" transform="scale(0.015625)"/>
        <path id="ArialMT-63" d="M 2588 1216 
L 3141 1144 
Q 3050 572 2676 248 
Q 2303 -75 1759 -75 
Q 1078 -75 664 370 
Q 250 816 250 1647 
Q 250 2184 428 2587 
Q 606 2991 970 3192 
Q 1334 3394 1763 3394 
Q 2303 3394 2647 3120 
Q 2991 2847 3088 2344 
L 2541 2259 
Q 2463 2594 2264 2762 
Q 2066 2931 1784 2931 
Q 1359 2931 1093 2626 
Q 828 2322 828 1663 
Q 828 994 1084 691 
Q 1341 388 1753 388 
Q 2084 388 2306 591 
Q 2528 794 2588 1216 
z
" transform="scale(0.015625)"/>
        <path id="ArialMT-68" d="M 422 0 
L 422 4581 
L 984 4581 
L 984 2938 
Q 1378 3394 1978 3394 
Q 2347 3394 2619 3248 
Q 2891 3103 3008 2847 
Q 3125 2591 3125 2103 
L 3125 0 
L 2563 0 
L 2563 2103 
Q 2563 2525 2380 2717 
Q 2197 2909 1863 2909 
Q 1613 2909 1392 2779 
Q 1172 2650 1078 2428 
Q 984 2206 984 1816 
L 984 0 
L 422 0 
z
" transform="scale(0.015625)"/>
        <path id="ArialMT-2d" d="M 203 1375 
L 203 1941 
L 1931 1941 
L 1931 1375 
L 203 1375 
z
" transform="scale(0.015625)"/>
        <path id="ArialMT-43" d="M 3763 1606 
L 4369 1453 
Q 4178 706 3683 314 
Q 3188 -78 2472 -78 
Q 1731 -78 1267 223 
Q 803 525 561 1097 
Q 319 1669 319 2325 
Q 319 3041 592 3573 
Q 866 4106 1370 4382 
Q 1875 4659 2481 4659 
Q 3169 4659 3637 4309 
Q 4106 3959 4291 3325 
L 3694 3184 
Q 3534 3684 3231 3912 
Q 2928 4141 2469 4141 
Q 1941 4141 1586 3887 
Q 1231 3634 1087 3207 
Q 944 2781 944 2328 
Q 944 1744 1114 1308 
Q 1284 872 1643 656 
Q 2003 441 2422 441 
Q 2931 441 3284 734 
Q 3638 1028 3763 1606 
z
" transform="scale(0.015625)"/>
        <path id="ArialMT-61" d="M 2588 409 
Q 2275 144 1986 34 
Q 1697 -75 1366 -75 
Q 819 -75 525 192 
Q 231 459 231 875 
Q 231 1119 342 1320 
Q 453 1522 633 1644 
Q 813 1766 1038 1828 
Q 1203 1872 1538 1913 
Q 2219 1994 2541 2106 
Q 2544 2222 2544 2253 
Q 2544 2597 2384 2738 
Q 2169 2928 1744 2928 
Q 1347 2928 1158 2789 
Q 969 2650 878 2297 
L 328 2372 
Q 403 2725 575 2942 
Q 747 3159 1072 3276 
Q 1397 3394 1825 3394 
Q 2250 3394 2515 3294 
Q 2781 3194 2906 3042 
Q 3031 2891 3081 2659 
Q 3109 2516 3109 2141 
L 3109 1391 
Q 3109 606 3145 398 
Q 3181 191 3288 0 
L 2700 0 
Q 2613 175 2588 409 
z
M 2541 1666 
Q 2234 1541 1622 1453 
Q 1275 1403 1131 1340 
Q 988 1278 909 1158 
Q 831 1038 831 891 
Q 831 666 1001 516 
Q 1172 366 1500 366 
Q 1825 366 2078 508 
Q 2331 650 2450 897 
Q 2541 1088 2541 1459 
L 2541 1666 
z
" transform="scale(0.015625)"/>
        <path id="ArialMT-74" d="M 1650 503 
L 1731 6 
Q 1494 -44 1306 -44 
Q 1000 -44 831 53 
Q 663 150 594 308 
Q 525 466 525 972 
L 525 2881 
L 113 2881 
L 113 3319 
L 525 3319 
L 525 4141 
L 1084 4478 
L 1084 3319 
L 1650 3319 
L 1650 2881 
L 1084 2881 
L 1084 941 
Q 1084 700 1114 631 
Q 1144 563 1211 522 
Q 1278 481 1403 481 
Q 1497 481 1650 503 
z
" transform="scale(0.015625)"/>
       </defs>
       <use xlink:href="#ArialMT-4c"/>
       <use xlink:href="#ArialMT-6f" transform="translate(55.615234 0)"/>
       <use xlink:href="#ArialMT-6e" transform="translate(111.230469 0)"/>
       <use xlink:href="#ArialMT-67" transform="translate(166.845703 0)"/>
       <use xlink:href="#ArialMT-62" transform="translate(222.460938 0)"/>
       <use xlink:href="#ArialMT-65" transform="translate(278.076172 0)"/>
       <use xlink:href="#ArialMT-6e" transform="translate(333.691406 0)"/>
       <use xlink:href="#ArialMT-63" transform="translate(389.306641 0)"/>
       <use xlink:href="#ArialMT-68" transform="translate(439.306641 0)"/>
       <use xlink:href="#ArialMT-2d" transform="translate(494.921875 0)"/>
       <use xlink:href="#ArialMT-43" transform="translate(528.222656 0)"/>
       <use xlink:href="#ArialMT-68" transform="translate(600.439453 0)"/>
       <use xlink:href="#ArialMT-61" transform="translate(656.054688 0)"/>
       <use xlink:href="#ArialMT-74" transform="translate(711.669922 0)"/>
      </g>
     </g>
    </g>
    <g id="xtick_2">
     <g id="line2d_2">
      <path d="M 252.828581 393.379375 
L 252.828581 21.935625 
" clip-path="url(#p57e1d2da29)" style="fill: none; stroke: #cccccc; stroke-linecap: round"/>
     </g>
     <g id="text_2">
      <!-- MultifieldQA -->
      <g style="fill: #262626" transform="translate(223.181003 410.752969) scale(0.11 -0.11)">
       <defs>
        <path id="ArialMT-4d" d="M 475 0 
L 475 4581 
L 1388 4581 
L 2472 1338 
Q 2622 884 2691 659 
Q 2769 909 2934 1394 
L 4031 4581 
L 4847 4581 
L 4847 0 
L 4263 0 
L 4263 3834 
L 2931 0 
L 2384 0 
L 1059 3900 
L 1059 0 
L 475 0 
z
" transform="scale(0.015625)"/>
        <path id="ArialMT-75" d="M 2597 0 
L 2597 488 
Q 2209 -75 1544 -75 
Q 1250 -75 995 37 
Q 741 150 617 320 
Q 494 491 444 738 
Q 409 903 409 1263 
L 409 3319 
L 972 3319 
L 972 1478 
Q 972 1038 1006 884 
Q 1059 663 1231 536 
Q 1403 409 1656 409 
Q 1909 409 2131 539 
Q 2353 669 2445 892 
Q 2538 1116 2538 1541 
L 2538 3319 
L 3100 3319 
L 3100 0 
L 2597 0 
z
" transform="scale(0.015625)"/>
        <path id="ArialMT-6c" d="M 409 0 
L 409 4581 
L 972 4581 
L 972 0 
L 409 0 
z
" transform="scale(0.015625)"/>
        <path id="ArialMT-69" d="M 425 3934 
L 425 4581 
L 988 4581 
L 988 3934 
L 425 3934 
z
M 425 0 
L 425 3319 
L 988 3319 
L 988 0 
L 425 0 
z
" transform="scale(0.015625)"/>
        <path id="ArialMT-66" d="M 556 0 
L 556 2881 
L 59 2881 
L 59 3319 
L 556 3319 
L 556 3672 
Q 556 4006 616 4169 
Q 697 4388 901 4523 
Q 1106 4659 1475 4659 
Q 1713 4659 2000 4603 
L 1916 4113 
Q 1741 4144 1584 4144 
Q 1328 4144 1222 4034 
Q 1116 3925 1116 3625 
L 1116 3319 
L 1763 3319 
L 1763 2881 
L 1116 2881 
L 1116 0 
L 556 0 
z
" transform="scale(0.015625)"/>
        <path id="ArialMT-64" d="M 2575 0 
L 2575 419 
Q 2259 -75 1647 -75 
Q 1250 -75 917 144 
Q 584 363 401 755 
Q 219 1147 219 1656 
Q 219 2153 384 2558 
Q 550 2963 881 3178 
Q 1213 3394 1622 3394 
Q 1922 3394 2156 3267 
Q 2391 3141 2538 2938 
L 2538 4581 
L 3097 4581 
L 3097 0 
L 2575 0 
z
M 797 1656 
Q 797 1019 1065 703 
Q 1334 388 1700 388 
Q 2069 388 2326 689 
Q 2584 991 2584 1609 
Q 2584 2291 2321 2609 
Q 2059 2928 1675 2928 
Q 1300 2928 1048 2622 
Q 797 2316 797 1656 
z
" transform="scale(0.015625)"/>
        <path id="ArialMT-51" d="M 3966 491 
Q 4388 200 4744 66 
L 4566 -356 
Q 4072 -178 3581 206 
Q 3072 -78 2456 -78 
Q 1834 -78 1328 222 
Q 822 522 548 1065 
Q 275 1609 275 2291 
Q 275 2969 550 3525 
Q 825 4081 1333 4372 
Q 1841 4663 2469 4663 
Q 3103 4663 3612 4361 
Q 4122 4059 4389 3517 
Q 4656 2975 4656 2294 
Q 4656 1728 4484 1276 
Q 4313 825 3966 491 
z
M 2631 1266 
Q 3156 1119 3497 828 
Q 4031 1316 4031 2294 
Q 4031 2850 3842 3265 
Q 3653 3681 3289 3911 
Q 2925 4141 2472 4141 
Q 1794 4141 1347 3677 
Q 900 3213 900 2291 
Q 900 1397 1342 919 
Q 1784 441 2472 441 
Q 2797 441 3084 563 
Q 2800 747 2484 825 
L 2631 1266 
z
" transform="scale(0.015625)"/>
        <path id="ArialMT-41" d="M -9 0 
L 1750 4581 
L 2403 4581 
L 4278 0 
L 3588 0 
L 3053 1388 
L 1138 1388 
L 634 0 
L -9 0 
z
M 1313 1881 
L 2866 1881 
L 2388 3150 
Q 2169 3728 2063 4100 
Q 1975 3659 1816 3225 
L 1313 1881 
z
" transform="scale(0.015625)"/>
       </defs>
       <use xlink:href="#ArialMT-4d"/>
       <use xlink:href="#ArialMT-75" transform="translate(83.300781 0)"/>
       <use xlink:href="#ArialMT-6c" transform="translate(138.916016 0)"/>
       <use xlink:href="#ArialMT-74" transform="translate(161.132812 0)"/>
       <use xlink:href="#ArialMT-69" transform="translate(188.916016 0)"/>
       <use xlink:href="#ArialMT-66" transform="translate(211.132812 0)"/>
       <use xlink:href="#ArialMT-69" transform="translate(238.916016 0)"/>
       <use xlink:href="#ArialMT-65" transform="translate(261.132812 0)"/>
       <use xlink:href="#ArialMT-6c" transform="translate(316.748047 0)"/>
       <use xlink:href="#ArialMT-64" transform="translate(338.964844 0)"/>
       <use xlink:href="#ArialMT-51" transform="translate(394.580078 0)"/>
       <use xlink:href="#ArialMT-41" transform="translate(472.363281 0)"/>
      </g>
     </g>
    </g>
    <g id="xtick_3">
     <g id="line2d_3">
      <path d="M 380.608485 393.379375 
L 380.608485 21.935625 
" clip-path="url(#p57e1d2da29)" style="fill: none; stroke: #cccccc; stroke-linecap: round"/>
     </g>
     <g id="text_3">
      <!-- HotpotQA -->
      <g style="fill: #262626" transform="translate(356.458329 410.893906) scale(0.11 -0.11)">
       <defs>
        <path id="ArialMT-48" d="M 513 0 
L 513 4581 
L 1119 4581 
L 1119 2700 
L 3500 2700 
L 3500 4581 
L 4106 4581 
L 4106 0 
L 3500 0 
L 3500 2159 
L 1119 2159 
L 1119 0 
L 513 0 
z
" transform="scale(0.015625)"/>
        <path id="ArialMT-70" d="M 422 -1272 
L 422 3319 
L 934 3319 
L 934 2888 
Q 1116 3141 1344 3267 
Q 1572 3394 1897 3394 
Q 2322 3394 2647 3175 
Q 2972 2956 3137 2557 
Q 3303 2159 3303 1684 
Q 3303 1175 3120 767 
Q 2938 359 2589 142 
Q 2241 -75 1856 -75 
Q 1575 -75 1351 44 
Q 1128 163 984 344 
L 984 -1272 
L 422 -1272 
z
M 931 1641 
Q 931 1000 1190 694 
Q 1450 388 1819 388 
Q 2194 388 2461 705 
Q 2728 1022 2728 1688 
Q 2728 2322 2467 2637 
Q 2206 2953 1844 2953 
Q 1484 2953 1207 2617 
Q 931 2281 931 1641 
z
" transform="scale(0.015625)"/>
       </defs>
       <use xlink:href="#ArialMT-48"/>
       <use xlink:href="#ArialMT-6f" transform="translate(72.216797 0)"/>
       <use xlink:href="#ArialMT-74" transform="translate(127.832031 0)"/>
       <use xlink:href="#ArialMT-70" transform="translate(155.615234 0)"/>
       <use xlink:href="#ArialMT-6f" transform="translate(211.230469 0)"/>
       <use xlink:href="#ArialMT-74" transform="translate(266.845703 0)"/>
       <use xlink:href="#ArialMT-51" transform="translate(294.628906 0)"/>
       <use xlink:href="#ArialMT-41" transform="translate(372.412109 0)"/>
      </g>
     </g>
    </g>
    <g id="xtick_4">
     <g id="line2d_4">
      <path d="M 508.38839 393.379375 
L 508.38839 21.935625 
" clip-path="url(#p57e1d2da29)" style="fill: none; stroke: #cccccc; stroke-linecap: round"/>
     </g>
     <g id="text_4">
      <!-- Dureader -->
      <g style="fill: #262626" transform="translate(485.461124 410.752969) scale(0.11 -0.11)">
       <defs>
        <path id="ArialMT-44" d="M 494 0 
L 494 4581 
L 2072 4581 
Q 2606 4581 2888 4516 
Q 3281 4425 3559 4188 
Q 3922 3881 4101 3404 
Q 4281 2928 4281 2316 
Q 4281 1794 4159 1391 
Q 4038 988 3847 723 
Q 3656 459 3429 307 
Q 3203 156 2883 78 
Q 2563 0 2147 0 
L 494 0 
z
M 1100 541 
L 2078 541 
Q 2531 541 2789 625 
Q 3047 709 3200 863 
Q 3416 1078 3536 1442 
Q 3656 1806 3656 2325 
Q 3656 3044 3420 3430 
Q 3184 3816 2847 3947 
Q 2603 4041 2063 4041 
L 1100 4041 
L 1100 541 
z
" transform="scale(0.015625)"/>
        <path id="ArialMT-72" d="M 416 0 
L 416 3319 
L 922 3319 
L 922 2816 
Q 1116 3169 1280 3281 
Q 1444 3394 1641 3394 
Q 1925 3394 2219 3213 
L 2025 2691 
Q 1819 2813 1613 2813 
Q 1428 2813 1281 2702 
Q 1134 2591 1072 2394 
Q 978 2094 978 1738 
L 978 0 
L 416 0 
z
" transform="scale(0.015625)"/>
       </defs>
       <use xlink:href="#ArialMT-44"/>
       <use xlink:href="#ArialMT-75" transform="translate(72.216797 0)"/>
       <use xlink:href="#ArialMT-72" transform="translate(127.832031 0)"/>
       <use xlink:href="#ArialMT-65" transform="translate(161.132812 0)"/>
       <use xlink:href="#ArialMT-61" transform="translate(216.748047 0)"/>
       <use xlink:href="#ArialMT-64" transform="translate(272.363281 0)"/>
       <use xlink:href="#ArialMT-65" transform="translate(327.978516 0)"/>
       <use xlink:href="#ArialMT-72" transform="translate(383.59375 0)"/>
      </g>
     </g>
    </g>
    <g id="xtick_5">
     <g id="line2d_5">
      <path d="M 636.168294 393.379375 
L 636.168294 21.935625 
" clip-path="url(#p57e1d2da29)" style="fill: none; stroke: #cccccc; stroke-linecap: round"/>
     </g>
     <g id="text_5">
      <!-- GovReport -->
      <g style="fill: #262626" transform="translate(609.574935 410.887031) scale(0.11 -0.11)">
       <defs>
        <path id="ArialMT-47" d="M 2638 1797 
L 2638 2334 
L 4578 2338 
L 4578 638 
Q 4131 281 3656 101 
Q 3181 -78 2681 -78 
Q 2006 -78 1454 211 
Q 903 500 622 1047 
Q 341 1594 341 2269 
Q 341 2938 620 3517 
Q 900 4097 1425 4378 
Q 1950 4659 2634 4659 
Q 3131 4659 3532 4498 
Q 3934 4338 4162 4050 
Q 4391 3763 4509 3300 
L 3963 3150 
Q 3859 3500 3706 3700 
Q 3553 3900 3268 4020 
Q 2984 4141 2638 4141 
Q 2222 4141 1919 4014 
Q 1616 3888 1430 3681 
Q 1244 3475 1141 3228 
Q 966 2803 966 2306 
Q 966 1694 1177 1281 
Q 1388 869 1791 669 
Q 2194 469 2647 469 
Q 3041 469 3416 620 
Q 3791 772 3984 944 
L 3984 1797 
L 2638 1797 
z
" transform="scale(0.015625)"/>
        <path id="ArialMT-76" d="M 1344 0 
L 81 3319 
L 675 3319 
L 1388 1331 
Q 1503 1009 1600 663 
Q 1675 925 1809 1294 
L 2547 3319 
L 3125 3319 
L 1869 0 
L 1344 0 
z
" transform="scale(0.015625)"/>
        <path id="ArialMT-52" d="M 503 0 
L 503 4581 
L 2534 4581 
Q 3147 4581 3465 4457 
Q 3784 4334 3975 4021 
Q 4166 3709 4166 3331 
Q 4166 2844 3850 2509 
Q 3534 2175 2875 2084 
Q 3116 1969 3241 1856 
Q 3506 1613 3744 1247 
L 4541 0 
L 3778 0 
L 3172 953 
Q 2906 1366 2734 1584 
Q 2563 1803 2427 1890 
Q 2291 1978 2150 2013 
Q 2047 2034 1813 2034 
L 1109 2034 
L 1109 0 
L 503 0 
z
M 1109 2559 
L 2413 2559 
Q 2828 2559 3062 2645 
Q 3297 2731 3419 2920 
Q 3541 3109 3541 3331 
Q 3541 3656 3305 3865 
Q 3069 4075 2559 4075 
L 1109 4075 
L 1109 2559 
z
" transform="scale(0.015625)"/>
       </defs>
       <use xlink:href="#ArialMT-47"/>
       <use xlink:href="#ArialMT-6f" transform="translate(77.783203 0)"/>
       <use xlink:href="#ArialMT-76" transform="translate(133.398438 0)"/>
       <use xlink:href="#ArialMT-52" transform="translate(183.398438 0)"/>
       <use xlink:href="#ArialMT-65" transform="translate(255.615234 0)"/>
       <use xlink:href="#ArialMT-70" transform="translate(311.230469 0)"/>
       <use xlink:href="#ArialMT-6f" transform="translate(366.845703 0)"/>
       <use xlink:href="#ArialMT-72" transform="translate(422.460938 0)"/>
       <use xlink:href="#ArialMT-74" transform="translate(455.761719 0)"/>
      </g>
     </g>
    </g>
    <g id="xtick_6">
     <g id="line2d_6">
      <path d="M 763.948198 393.379375 
L 763.948198 21.935625 
" clip-path="url(#p57e1d2da29)" style="fill: none; stroke: #cccccc; stroke-linecap: round"/>
     </g>
     <g id="text_6">
      <!-- Avg -->
      <g style="fill: #262626" transform="translate(754.567261 410.752969) scale(0.11 -0.11)">
       <use xlink:href="#ArialMT-41"/>
       <use xlink:href="#ArialMT-76" transform="translate(64.949219 0)"/>
       <use xlink:href="#ArialMT-67" transform="translate(114.949219 0)"/>
      </g>
     </g>
    </g>
   </g>
   <g id="matplotlib.axis_2">
    <g id="ytick_1">
     <g id="line2d_7">
      <path d="M 43.908438 356.235 
L 845.088437 356.235 
" clip-path="url(#p57e1d2da29)" style="fill: none; stroke: #cccccc; stroke-linecap: round"/>
     </g>
     <g id="text_7">
      <!-- 50 -->
      <g style="fill: #262626" transform="translate(22.174375 360.171797) scale(0.11 -0.11)">
       <defs>
        <path id="ArialMT-35" d="M 266 1200 
L 856 1250 
Q 922 819 1161 601 
Q 1400 384 1738 384 
Q 2144 384 2425 690 
Q 2706 997 2706 1503 
Q 2706 1984 2436 2262 
Q 2166 2541 1728 2541 
Q 1456 2541 1237 2417 
Q 1019 2294 894 2097 
L 366 2166 
L 809 4519 
L 3088 4519 
L 3088 3981 
L 1259 3981 
L 1013 2750 
Q 1425 3038 1878 3038 
Q 2478 3038 2890 2622 
Q 3303 2206 3303 1553 
Q 3303 931 2941 478 
Q 2500 -78 1738 -78 
Q 1113 -78 717 272 
Q 322 622 266 1200 
z
" transform="scale(0.015625)"/>
        <path id="ArialMT-30" d="M 266 2259 
Q 266 3072 433 3567 
Q 600 4063 929 4331 
Q 1259 4600 1759 4600 
Q 2128 4600 2406 4451 
Q 2684 4303 2865 4023 
Q 3047 3744 3150 3342 
Q 3253 2941 3253 2259 
Q 3253 1453 3087 958 
Q 2922 463 2592 192 
Q 2263 -78 1759 -78 
Q 1097 -78 719 397 
Q 266 969 266 2259 
z
M 844 2259 
Q 844 1131 1108 757 
Q 1372 384 1759 384 
Q 2147 384 2411 759 
Q 2675 1134 2675 2259 
Q 2675 3391 2411 3762 
Q 2147 4134 1753 4134 
Q 1366 4134 1134 3806 
Q 844 3388 844 2259 
z
" transform="scale(0.015625)"/>
       </defs>
       <use xlink:href="#ArialMT-35"/>
       <use xlink:href="#ArialMT-30" transform="translate(55.615234 0)"/>
      </g>
     </g>
    </g>
    <g id="ytick_2">
     <g id="line2d_8">
      <path d="M 43.908438 281.94625 
L 845.088437 281.94625 
" clip-path="url(#p57e1d2da29)" style="fill: none; stroke: #cccccc; stroke-linecap: round"/>
     </g>
     <g id="text_8">
      <!-- 60 -->
      <g style="fill: #262626" transform="translate(22.174375 285.883047) scale(0.11 -0.11)">
       <defs>
        <path id="ArialMT-36" d="M 3184 3459 
L 2625 3416 
Q 2550 3747 2413 3897 
Q 2184 4138 1850 4138 
Q 1581 4138 1378 3988 
Q 1113 3794 959 3422 
Q 806 3050 800 2363 
Q 1003 2672 1297 2822 
Q 1591 2972 1913 2972 
Q 2475 2972 2870 2558 
Q 3266 2144 3266 1488 
Q 3266 1056 3080 686 
Q 2894 316 2569 119 
Q 2244 -78 1831 -78 
Q 1128 -78 684 439 
Q 241 956 241 2144 
Q 241 3472 731 4075 
Q 1159 4600 1884 4600 
Q 2425 4600 2770 4297 
Q 3116 3994 3184 3459 
z
M 888 1484 
Q 888 1194 1011 928 
Q 1134 663 1356 523 
Q 1578 384 1822 384 
Q 2178 384 2434 671 
Q 2691 959 2691 1453 
Q 2691 1928 2437 2201 
Q 2184 2475 1800 2475 
Q 1419 2475 1153 2201 
Q 888 1928 888 1484 
z
" transform="scale(0.015625)"/>
       </defs>
       <use xlink:href="#ArialMT-36"/>
       <use xlink:href="#ArialMT-30" transform="translate(55.615234 0)"/>
      </g>
     </g>
    </g>
    <g id="ytick_3">
     <g id="line2d_9">
      <path d="M 43.908438 207.6575 
L 845.088437 207.6575 
" clip-path="url(#p57e1d2da29)" style="fill: none; stroke: #cccccc; stroke-linecap: round"/>
     </g>
     <g id="text_9">
      <!-- 70 -->
      <g style="fill: #262626" transform="translate(22.174375 211.594297) scale(0.11 -0.11)">
       <defs>
        <path id="ArialMT-37" d="M 303 3981 
L 303 4522 
L 3269 4522 
L 3269 4084 
Q 2831 3619 2401 2847 
Q 1972 2075 1738 1259 
Q 1569 684 1522 0 
L 944 0 
Q 953 541 1156 1306 
Q 1359 2072 1739 2783 
Q 2119 3494 2547 3981 
L 303 3981 
z
" transform="scale(0.015625)"/>
       </defs>
       <use xlink:href="#ArialMT-37"/>
       <use xlink:href="#ArialMT-30" transform="translate(55.615234 0)"/>
      </g>
     </g>
    </g>
    <g id="ytick_4">
     <g id="line2d_10">
      <path d="M 43.908438 133.36875 
L 845.088437 133.36875 
" clip-path="url(#p57e1d2da29)" style="fill: none; stroke: #cccccc; stroke-linecap: round"/>
     </g>
     <g id="text_10">
      <!-- 80 -->
      <g style="fill: #262626" transform="translate(22.174375 137.305547) scale(0.11 -0.11)">
       <defs>
        <path id="ArialMT-38" d="M 1131 2484 
Q 781 2613 612 2850 
Q 444 3088 444 3419 
Q 444 3919 803 4259 
Q 1163 4600 1759 4600 
Q 2359 4600 2725 4251 
Q 3091 3903 3091 3403 
Q 3091 3084 2923 2848 
Q 2756 2613 2416 2484 
Q 2838 2347 3058 2040 
Q 3278 1734 3278 1309 
Q 3278 722 2862 322 
Q 2447 -78 1769 -78 
Q 1091 -78 675 323 
Q 259 725 259 1325 
Q 259 1772 486 2073 
Q 713 2375 1131 2484 
z
M 1019 3438 
Q 1019 3113 1228 2906 
Q 1438 2700 1772 2700 
Q 2097 2700 2305 2904 
Q 2513 3109 2513 3406 
Q 2513 3716 2298 3927 
Q 2084 4138 1766 4138 
Q 1444 4138 1231 3931 
Q 1019 3725 1019 3438 
z
M 838 1322 
Q 838 1081 952 856 
Q 1066 631 1291 507 
Q 1516 384 1775 384 
Q 2178 384 2440 643 
Q 2703 903 2703 1303 
Q 2703 1709 2433 1975 
Q 2163 2241 1756 2241 
Q 1359 2241 1098 1978 
Q 838 1716 838 1322 
z
" transform="scale(0.015625)"/>
       </defs>
       <use xlink:href="#ArialMT-38"/>
       <use xlink:href="#ArialMT-30" transform="translate(55.615234 0)"/>
      </g>
     </g>
    </g>
    <g id="ytick_5">
     <g id="line2d_11">
      <path d="M 43.908438 59.08 
L 845.088437 59.08 
" clip-path="url(#p57e1d2da29)" style="fill: none; stroke: #cccccc; stroke-linecap: round"/>
     </g>
     <g id="text_11">
      <!-- 90 -->
      <g style="fill: #262626" transform="translate(22.174375 63.016797) scale(0.11 -0.11)">
       <defs>
        <path id="ArialMT-39" d="M 350 1059 
L 891 1109 
Q 959 728 1153 556 
Q 1347 384 1650 384 
Q 1909 384 2104 503 
Q 2300 622 2425 820 
Q 2550 1019 2634 1356 
Q 2719 1694 2719 2044 
Q 2719 2081 2716 2156 
Q 2547 1888 2255 1720 
Q 1963 1553 1622 1553 
Q 1053 1553 659 1965 
Q 266 2378 266 3053 
Q 266 3750 677 4175 
Q 1088 4600 1706 4600 
Q 2153 4600 2523 4359 
Q 2894 4119 3086 3673 
Q 3278 3228 3278 2384 
Q 3278 1506 3087 986 
Q 2897 466 2520 194 
Q 2144 -78 1638 -78 
Q 1100 -78 759 220 
Q 419 519 350 1059 
z
M 2653 3081 
Q 2653 3566 2395 3850 
Q 2138 4134 1775 4134 
Q 1400 4134 1122 3828 
Q 844 3522 844 3034 
Q 844 2597 1108 2323 
Q 1372 2050 1759 2050 
Q 2150 2050 2401 2323 
Q 2653 2597 2653 3081 
z
" transform="scale(0.015625)"/>
       </defs>
       <use xlink:href="#ArialMT-39"/>
       <use xlink:href="#ArialMT-30" transform="translate(55.615234 0)"/>
      </g>
     </g>
    </g>
    <g id="text_12">
     <!-- Citation F1 -->
     <g style="fill: #262626" transform="translate(15.789375 236.668437) rotate(-90) scale(0.12 -0.12)">
      <defs>
       <path id="ArialMT-20" transform="scale(0.015625)"/>
       <path id="ArialMT-46" d="M 525 0 
L 525 4581 
L 3616 4581 
L 3616 4041 
L 1131 4041 
L 1131 2622 
L 3281 2622 
L 3281 2081 
L 1131 2081 
L 1131 0 
L 525 0 
z
" transform="scale(0.015625)"/>
       <path id="ArialMT-31" d="M 2384 0 
L 1822 0 
L 1822 3584 
Q 1619 3391 1289 3197 
Q 959 3003 697 2906 
L 697 3450 
Q 1169 3672 1522 3987 
Q 1875 4303 2022 4600 
L 2384 4600 
L 2384 0 
z
" transform="scale(0.015625)"/>
      </defs>
      <use xlink:href="#ArialMT-43"/>
      <use xlink:href="#ArialMT-69" transform="translate(72.216797 0)"/>
      <use xlink:href="#ArialMT-74" transform="translate(94.433594 0)"/>
      <use xlink:href="#ArialMT-61" transform="translate(122.216797 0)"/>
      <use xlink:href="#ArialMT-74" transform="translate(177.832031 0)"/>
      <use xlink:href="#ArialMT-69" transform="translate(205.615234 0)"/>
      <use xlink:href="#ArialMT-6f" transform="translate(227.832031 0)"/>
      <use xlink:href="#ArialMT-6e" transform="translate(283.447266 0)"/>
      <use xlink:href="#ArialMT-20" transform="translate(339.0625 0)"/>
      <use xlink:href="#ArialMT-46" transform="translate(366.845703 0)"/>
      <use xlink:href="#ArialMT-31" transform="translate(427.929688 0)"/>
     </g>
    </g>
   </g>
   <g id="patch_3">
    <path d="M 80.32571 727.67875 
L 93.103701 727.67875 
L 93.103701 380.750288 
L 80.32571 380.750288 
z
" clip-path="url(#p57e1d2da29)" style="fill: #aaf181; stroke: #ffffff; stroke-linejoin: miter"/>
   </g>
   <g id="patch_4">
    <path d="M 208.105615 727.67875 
L 220.883605 727.67875 
L 220.883605 128.911425 
L 208.105615 128.911425 
z
" clip-path="url(#p57e1d2da29)" style="fill: #aaf181; stroke: #ffffff; stroke-linejoin: miter"/>
   </g>
   <g id="patch_5">
    <path d="M 335.885519 727.67875 
L 348.663509 727.67875 
L 348.663509 330.976825 
L 335.885519 330.976825 
z
" clip-path="url(#p57e1d2da29)" style="fill: #aaf181; stroke: #ffffff; stroke-linejoin: miter"/>
   </g>
   <g id="patch_6">
    <path d="M 463.665423 727.67875 
L 476.443414 727.67875 
L 476.443414 226.972575 
L 463.665423 226.972575 
z
" clip-path="url(#p57e1d2da29)" style="fill: #aaf181; stroke: #ffffff; stroke-linejoin: miter"/>
   </g>
   <g id="patch_7">
    <path d="M 591.445327 727.67875 
L 604.223318 727.67875 
L 604.223318 134.854525 
L 591.445327 134.854525 
z
" clip-path="url(#p57e1d2da29)" style="fill: #aaf181; stroke: #ffffff; stroke-linejoin: miter"/>
   </g>
   <g id="patch_8">
    <path d="M 719.225232 727.67875 
L 732.003222 727.67875 
L 732.003222 240.34455 
L 719.225232 240.34455 
z
" clip-path="url(#p57e1d2da29)" style="fill: #aaf181; stroke: #ffffff; stroke-linejoin: miter"/>
   </g>
   <g id="patch_9">
    <path d="M 93.103701 727.67875 
L 105.881691 727.67875 
L 105.881691 318.347737 
L 93.103701 318.347737 
z
" clip-path="url(#p57e1d2da29)" style="fill: #ffa16f; stroke: #ffffff; stroke-linejoin: miter"/>
   </g>
   <g id="patch_10">
    <path d="M 220.883605 727.67875 
L 233.661595 727.67875 
L 233.661595 197.999963 
L 220.883605 197.999963 
z
" clip-path="url(#p57e1d2da29)" style="fill: #ffa16f; stroke: #ffffff; stroke-linejoin: miter"/>
   </g>
   <g id="patch_11">
    <path d="M 348.663509 727.67875 
L 361.4415 727.67875 
L 361.4415 356.977888 
L 348.663509 356.977888 
z
" clip-path="url(#p57e1d2da29)" style="fill: #ffa16f; stroke: #ffffff; stroke-linejoin: miter"/>
   </g>
   <g id="patch_12">
    <path d="M 476.443414 727.67875 
L 489.221404 727.67875 
L 489.221404 166.798688 
L 476.443414 166.798688 
z
" clip-path="url(#p57e1d2da29)" style="fill: #ffa16f; stroke: #ffffff; stroke-linejoin: miter"/>
   </g>
   <g id="patch_13">
    <path d="M 604.223318 727.67875 
L 617.001308 727.67875 
L 617.001308 102.910363 
L 604.223318 102.910363 
z
" clip-path="url(#p57e1d2da29)" style="fill: #ffa16f; stroke: #ffffff; stroke-linejoin: miter"/>
   </g>
   <g id="patch_14">
    <path d="M 732.003222 727.67875 
L 744.781213 727.67875 
L 744.781213 228.45835 
L 732.003222 228.45835 
z
" clip-path="url(#p57e1d2da29)" style="fill: #ffa16f; stroke: #ffffff; stroke-linejoin: miter"/>
   </g>
   <g id="patch_15">
    <path d="M 105.881691 727.67875 
L 118.659682 727.67875 
L 118.659682 232.915675 
L 105.881691 232.915675 
z
" clip-path="url(#p57e1d2da29)" style="fill: #5ac5db; stroke: #ffffff; stroke-linejoin: miter"/>
   </g>
   <g id="patch_16">
    <path d="M 233.661595 727.67875 
L 246.439586 727.67875 
L 246.439586 134.111637 
L 233.661595 134.111637 
z
" clip-path="url(#p57e1d2da29)" style="fill: #5ac5db; stroke: #ffffff; stroke-linejoin: miter"/>
   </g>
   <g id="patch_17">
    <path d="M 361.4415 727.67875 
L 374.21949 727.67875 
L 374.21949 251.487863 
L 361.4415 251.487863 
z
" clip-path="url(#p57e1d2da29)" style="fill: #5ac5db; stroke: #ffffff; stroke-linejoin: miter"/>
   </g>
   <g id="patch_18">
    <path d="M 489.221404 727.67875 
L 501.999394 727.67875 
L 501.999394 180.170662 
L 489.221404 180.170662 
z
" clip-path="url(#p57e1d2da29)" style="fill: #5ac5db; stroke: #ffffff; stroke-linejoin: miter"/>
   </g>
   <g id="patch_19">
    <path d="M 617.001308 727.67875 
L 629.779299 727.67875 
L 629.779299 99.938813 
L 617.001308 99.938813 
z
" clip-path="url(#p57e1d2da29)" style="fill: #5ac5db; stroke: #ffffff; stroke-linejoin: miter"/>
   </g>
   <g id="patch_20">
    <path d="M 744.781213 727.67875 
L 757.559203 727.67875 
L 757.559203 179.427775 
L 744.781213 179.427775 
z
" clip-path="url(#p57e1d2da29)" style="fill: #5ac5db; stroke: #ffffff; stroke-linejoin: miter"/>
   </g>
   <g id="patch_21">
    <path d="M 118.659682 727.67875 
L 131.437672 727.67875 
L 131.437672 198.74285 
L 118.659682 198.74285 
z
" clip-path="url(#p57e1d2da29)" style="fill: #5387dd; stroke: #ffffff; stroke-linejoin: miter"/>
   </g>
   <g id="patch_22">
    <path d="M 246.439586 727.67875 
L 259.217576 727.67875 
L 259.217576 124.4541 
L 246.439586 124.4541 
z
" clip-path="url(#p57e1d2da29)" style="fill: #5387dd; stroke: #ffffff; stroke-linejoin: miter"/>
   </g>
   <g id="patch_23">
    <path d="M 374.21949 727.67875 
L 386.997481 727.67875 
L 386.997481 216.57215 
L 374.21949 216.57215 
z
" clip-path="url(#p57e1d2da29)" style="fill: #5387dd; stroke: #ffffff; stroke-linejoin: miter"/>
   </g>
   <g id="patch_24">
    <path d="M 501.999394 727.67875 
L 514.777385 727.67875 
L 514.777385 156.398262 
L 501.999394 156.398262 
z
" clip-path="url(#p57e1d2da29)" style="fill: #5387dd; stroke: #ffffff; stroke-linejoin: miter"/>
   </g>
   <g id="patch_25">
    <path d="M 629.779299 727.67875 
L 642.557289 727.67875 
L 642.557289 64.280213 
L 629.779299 64.280213 
z
" clip-path="url(#p57e1d2da29)" style="fill: #5387dd; stroke: #ffffff; stroke-linejoin: miter"/>
   </g>
   <g id="patch_26">
    <path d="M 757.559203 727.67875 
L 770.337193 727.67875 
L 770.337193 151.940938 
L 757.559203 151.940938 
z
" clip-path="url(#p57e1d2da29)" style="fill: #5387dd; stroke: #ffffff; stroke-linejoin: miter"/>
   </g>
   <g id="patch_27">
    <path d="M 131.437672 727.67875 
L 144.215662 727.67875 
L 144.215662 214.343488 
L 131.437672 214.343488 
z
" clip-path="url(#p57e1d2da29)" style="fill: #7d54b2; stroke: #ffffff; stroke-linejoin: miter"/>
   </g>
   <g id="patch_28">
    <path d="M 259.217576 727.67875 
L 271.995567 727.67875 
L 271.995567 125.939875 
L 259.217576 125.939875 
z
" clip-path="url(#p57e1d2da29)" style="fill: #7d54b2; stroke: #ffffff; stroke-linejoin: miter"/>
   </g>
   <g id="patch_29">
    <path d="M 386.997481 727.67875 
L 399.775471 727.67875 
L 399.775471 196.514188 
L 386.997481 196.514188 
z
" clip-path="url(#p57e1d2da29)" style="fill: #7d54b2; stroke: #ffffff; stroke-linejoin: miter"/>
   </g>
   <g id="patch_30">
    <path d="M 514.777385 727.67875 
L 527.555375 727.67875 
L 527.555375 141.540512 
L 514.777385 141.540512 
z
" clip-path="url(#p57e1d2da29)" style="fill: #7d54b2; stroke: #ffffff; stroke-linejoin: miter"/>
   </g>
   <g id="patch_31">
    <path d="M 642.557289 727.67875 
L 655.33528 727.67875 
L 655.33528 65.765988 
L 642.557289 65.765988 
z
" clip-path="url(#p57e1d2da29)" style="fill: #7d54b2; stroke: #ffffff; stroke-linejoin: miter"/>
   </g>
   <g id="patch_32">
    <path d="M 770.337193 727.67875 
L 783.115184 727.67875 
L 783.115184 148.969387 
L 770.337193 148.969387 
z
" clip-path="url(#p57e1d2da29)" style="fill: #7d54b2; stroke: #ffffff; stroke-linejoin: miter"/>
   </g>
   <g id="patch_33">
    <path d="M 144.215662 727.67875 
L 156.993653 727.67875 
L 156.993653 186.85665 
L 144.215662 186.85665 
z
" clip-path="url(#p57e1d2da29)" style="fill: #c665c7; stroke: #ffffff; stroke-linejoin: miter"/>
   </g>
   <g id="patch_34">
    <path d="M 271.995567 727.67875 
L 284.773557 727.67875 
L 284.773557 117.025225 
L 271.995567 117.025225 
z
" clip-path="url(#p57e1d2da29)" style="fill: #c665c7; stroke: #ffffff; stroke-linejoin: miter"/>
   </g>
   <g id="patch_35">
    <path d="M 399.775471 727.67875 
L 412.553461 727.67875 
L 412.553461 199.485738 
L 399.775471 199.485738 
z
" clip-path="url(#p57e1d2da29)" style="fill: #c665c7; stroke: #ffffff; stroke-linejoin: miter"/>
   </g>
   <g id="patch_36">
    <path d="M 527.555375 727.67875 
L 540.333366 727.67875 
L 540.333366 131.140088 
L 527.555375 131.140088 
z
" clip-path="url(#p57e1d2da29)" style="fill: #c665c7; stroke: #ffffff; stroke-linejoin: miter"/>
   </g>
   <g id="patch_37">
    <path d="M 655.33528 727.67875 
L 668.11327 727.67875 
L 668.11327 65.0231 
L 655.33528 65.0231 
z
" clip-path="url(#p57e1d2da29)" style="fill: #c665c7; stroke: #ffffff; stroke-linejoin: miter"/>
   </g>
   <g id="patch_38">
    <path d="M 783.115184 727.67875 
L 795.893174 727.67875 
L 795.893174 140.054737 
L 783.115184 140.054737 
z
" clip-path="url(#p57e1d2da29)" style="fill: #c665c7; stroke: #ffffff; stroke-linejoin: miter"/>
   </g>
   <g id="patch_39">
    <path d="M 156.993653 727.67875 
L 169.771643 727.67875 
L 169.771643 224.001025 
L 156.993653 224.001025 
z
" clip-path="url(#p57e1d2da29)" style="fill: url(#hef53d4ba11); stroke: #ffffff; stroke-linejoin: miter"/>
   </g>
   <g id="patch_40">
    <path d="M 284.773557 727.67875 
L 297.551548 727.67875 
L 297.551548 96.967262 
L 284.773557 96.967262 
z
" clip-path="url(#p57e1d2da29)" style="fill: url(#hef53d4ba11); stroke: #ffffff; stroke-linejoin: miter"/>
   </g>
   <g id="patch_41">
    <path d="M 412.553461 727.67875 
L 425.331452 727.67875 
L 425.331452 186.113763 
L 412.553461 186.113763 
z
" clip-path="url(#p57e1d2da29)" style="fill: url(#hef53d4ba11); stroke: #ffffff; stroke-linejoin: miter"/>
   </g>
   <g id="patch_42">
    <path d="M 540.333366 727.67875 
L 553.111356 727.67875 
L 553.111356 35.3076 
L 540.333366 35.3076 
z
" clip-path="url(#p57e1d2da29)" style="fill: url(#hef53d4ba11); stroke: #ffffff; stroke-linejoin: miter"/>
   </g>
   <g id="patch_43">
    <path d="M 668.11327 727.67875 
L 680.89126 727.67875 
L 680.89126 76.166412 
L 668.11327 76.166412 
z
" clip-path="url(#p57e1d2da29)" style="fill: url(#hef53d4ba11); stroke: #ffffff; stroke-linejoin: miter"/>
   </g>
   <g id="patch_44">
    <path d="M 795.893174 727.67875 
L 808.671165 727.67875 
L 808.671165 123.711212 
L 795.893174 123.711212 
z
" clip-path="url(#p57e1d2da29)" style="fill: url(#hef53d4ba11); stroke: #ffffff; stroke-linejoin: miter"/>
   </g>
   <g id="patch_45">
    <path d="M 43.908438 393.379375 
L 43.908438 21.935625 
" style="fill: none; stroke: #cccccc; stroke-width: 1.25; stroke-linejoin: miter; stroke-linecap: square"/>
   </g>
   <g id="patch_46">
    <path d="M 845.088437 393.379375 
L 845.088437 21.935625 
" style="fill: none; stroke: #cccccc; stroke-width: 1.25; stroke-linejoin: miter; stroke-linecap: square"/>
   </g>
   <g id="patch_47">
    <path d="M 43.908438 393.379375 
L 845.088438 393.379375 
" style="fill: none; stroke: #cccccc; stroke-width: 1.25; stroke-linejoin: miter; stroke-linecap: square"/>
   </g>
   <g id="patch_48">
    <path d="M 43.908438 21.935625 
L 845.088438 21.935625 
" style="fill: none; stroke: #cccccc; stroke-width: 1.25; stroke-linejoin: miter; stroke-linecap: square"/>
   </g>
   <g id="text_13">
    <!-- Citation F1 across datasets in LongBench-Cite -->
    <g style="fill: #262626" transform="translate(320.77375 15.935625) scale(0.12 -0.12)">
     <defs>
      <path id="ArialMT-73" d="M 197 991 
L 753 1078 
Q 800 744 1014 566 
Q 1228 388 1613 388 
Q 2000 388 2187 545 
Q 2375 703 2375 916 
Q 2375 1106 2209 1216 
Q 2094 1291 1634 1406 
Q 1016 1563 777 1677 
Q 538 1791 414 1992 
Q 291 2194 291 2438 
Q 291 2659 392 2848 
Q 494 3038 669 3163 
Q 800 3259 1026 3326 
Q 1253 3394 1513 3394 
Q 1903 3394 2198 3281 
Q 2494 3169 2634 2976 
Q 2775 2784 2828 2463 
L 2278 2388 
Q 2241 2644 2061 2787 
Q 1881 2931 1553 2931 
Q 1166 2931 1000 2803 
Q 834 2675 834 2503 
Q 834 2394 903 2306 
Q 972 2216 1119 2156 
Q 1203 2125 1616 2013 
Q 2213 1853 2448 1751 
Q 2684 1650 2818 1456 
Q 2953 1263 2953 975 
Q 2953 694 2789 445 
Q 2625 197 2315 61 
Q 2006 -75 1616 -75 
Q 969 -75 630 194 
Q 291 463 197 991 
z
" transform="scale(0.015625)"/>
      <path id="ArialMT-42" d="M 469 0 
L 469 4581 
L 2188 4581 
Q 2713 4581 3030 4442 
Q 3347 4303 3526 4014 
Q 3706 3725 3706 3409 
Q 3706 3116 3547 2856 
Q 3388 2597 3066 2438 
Q 3481 2316 3704 2022 
Q 3928 1728 3928 1328 
Q 3928 1006 3792 729 
Q 3656 453 3456 303 
Q 3256 153 2954 76 
Q 2653 0 2216 0 
L 469 0 
z
M 1075 2656 
L 2066 2656 
Q 2469 2656 2644 2709 
Q 2875 2778 2992 2937 
Q 3109 3097 3109 3338 
Q 3109 3566 3000 3739 
Q 2891 3913 2687 3977 
Q 2484 4041 1991 4041 
L 1075 4041 
L 1075 2656 
z
M 1075 541 
L 2216 541 
Q 2509 541 2628 563 
Q 2838 600 2978 687 
Q 3119 775 3209 942 
Q 3300 1109 3300 1328 
Q 3300 1584 3169 1773 
Q 3038 1963 2805 2039 
Q 2572 2116 2134 2116 
L 1075 2116 
L 1075 541 
z
" transform="scale(0.015625)"/>
     </defs>
     <use xlink:href="#ArialMT-43"/>
     <use xlink:href="#ArialMT-69" transform="translate(72.216797 0)"/>
     <use xlink:href="#ArialMT-74" transform="translate(94.433594 0)"/>
     <use xlink:href="#ArialMT-61" transform="translate(122.216797 0)"/>
     <use xlink:href="#ArialMT-74" transform="translate(177.832031 0)"/>
     <use xlink:href="#ArialMT-69" transform="translate(205.615234 0)"/>
     <use xlink:href="#ArialMT-6f" transform="translate(227.832031 0)"/>
     <use xlink:href="#ArialMT-6e" transform="translate(283.447266 0)"/>
     <use xlink:href="#ArialMT-20" transform="translate(339.0625 0)"/>
     <use xlink:href="#ArialMT-46" transform="translate(366.845703 0)"/>
     <use xlink:href="#ArialMT-31" transform="translate(427.929688 0)"/>
     <use xlink:href="#ArialMT-20" transform="translate(483.544922 0)"/>
     <use xlink:href="#ArialMT-61" transform="translate(511.328125 0)"/>
     <use xlink:href="#ArialMT-63" transform="translate(566.943359 0)"/>
     <use xlink:href="#ArialMT-72" transform="translate(616.943359 0)"/>
     <use xlink:href="#ArialMT-6f" transform="translate(650.244141 0)"/>
     <use xlink:href="#ArialMT-73" transform="translate(705.859375 0)"/>
     <use xlink:href="#ArialMT-73" transform="translate(755.859375 0)"/>
     <use xlink:href="#ArialMT-20" transform="translate(805.859375 0)"/>
     <use xlink:href="#ArialMT-64" transform="translate(833.642578 0)"/>
     <use xlink:href="#ArialMT-61" transform="translate(889.257812 0)"/>
     <use xlink:href="#ArialMT-74" transform="translate(944.873047 0)"/>
     <use xlink:href="#ArialMT-61" transform="translate(972.65625 0)"/>
     <use xlink:href="#ArialMT-73" transform="translate(1028.271484 0)"/>
     <use xlink:href="#ArialMT-65" transform="translate(1078.271484 0)"/>
     <use xlink:href="#ArialMT-74" transform="translate(1133.886719 0)"/>
     <use xlink:href="#ArialMT-73" transform="translate(1161.669922 0)"/>
     <use xlink:href="#ArialMT-20" transform="translate(1211.669922 0)"/>
     <use xlink:href="#ArialMT-69" transform="translate(1239.453125 0)"/>
     <use xlink:href="#ArialMT-6e" transform="translate(1261.669922 0)"/>
     <use xlink:href="#ArialMT-20" transform="translate(1317.285156 0)"/>
     <use xlink:href="#ArialMT-4c" transform="translate(1345.068359 0)"/>
     <use xlink:href="#ArialMT-6f" transform="translate(1400.683594 0)"/>
     <use xlink:href="#ArialMT-6e" transform="translate(1456.298828 0)"/>
     <use xlink:href="#ArialMT-67" transform="translate(1511.914062 0)"/>
     <use xlink:href="#ArialMT-42" transform="translate(1567.529297 0)"/>
     <use xlink:href="#ArialMT-65" transform="translate(1634.228516 0)"/>
     <use xlink:href="#ArialMT-6e" transform="translate(1689.84375 0)"/>
     <use xlink:href="#ArialMT-63" transform="translate(1745.458984 0)"/>
     <use xlink:href="#ArialMT-68" transform="translate(1795.458984 0)"/>
     <use xlink:href="#ArialMT-2d" transform="translate(1851.074219 0)"/>
     <use xlink:href="#ArialMT-43" transform="translate(1884.375 0)"/>
     <use xlink:href="#ArialMT-69" transform="translate(1956.591797 0)"/>
     <use xlink:href="#ArialMT-74" transform="translate(1978.808594 0)"/>
     <use xlink:href="#ArialMT-65" transform="translate(2006.591797 0)"/>
    </g>
   </g>
   <g id="legend_1">
    <g id="patch_49">
     <path d="M 51.608438 139.9175 
L 206.627656 139.9175 
Q 208.827656 139.9175 208.827656 137.7175 
L 208.827656 29.635625 
Q 208.827656 27.435625 206.627656 27.435625 
L 51.608438 27.435625 
Q 49.408438 27.435625 49.408438 29.635625 
L 49.408438 137.7175 
Q 49.408438 139.9175 51.608438 139.9175 
z
" style="fill: #ffffff; opacity: 0.8; stroke: #cccccc; stroke-linejoin: miter"/>
    </g>
    <g id="patch_50">
     <path d="M 53.808438 39.709219 
L 75.808437 39.709219 
L 75.808437 32.009219 
L 53.808438 32.009219 
z
" style="fill: #aaf181; stroke: #ffffff; stroke-linejoin: miter"/>
    </g>
    <g id="text_14">
     <!-- GPT-4o -->
     <g style="fill: #262626" transform="translate(84.608438 39.709219) scale(0.11 -0.11)">
      <defs>
       <path id="ArialMT-50" d="M 494 0 
L 494 4581 
L 2222 4581 
Q 2678 4581 2919 4538 
Q 3256 4481 3484 4323 
Q 3713 4166 3852 3881 
Q 3991 3597 3991 3256 
Q 3991 2672 3619 2267 
Q 3247 1863 2275 1863 
L 1100 1863 
L 1100 0 
L 494 0 
z
M 1100 2403 
L 2284 2403 
Q 2872 2403 3119 2622 
Q 3366 2841 3366 3238 
Q 3366 3525 3220 3729 
Q 3075 3934 2838 4000 
Q 2684 4041 2272 4041 
L 1100 4041 
L 1100 2403 
z
" transform="scale(0.015625)"/>
       <path id="ArialMT-54" d="M 1659 0 
L 1659 4041 
L 150 4041 
L 150 4581 
L 3781 4581 
L 3781 4041 
L 2266 4041 
L 2266 0 
L 1659 0 
z
" transform="scale(0.015625)"/>
       <path id="ArialMT-34" d="M 2069 0 
L 2069 1097 
L 81 1097 
L 81 1613 
L 2172 4581 
L 2631 4581 
L 2631 1613 
L 3250 1613 
L 3250 1097 
L 2631 1097 
L 2631 0 
L 2069 0 
z
M 2069 1613 
L 2069 3678 
L 634 1613 
L 2069 1613 
z
" transform="scale(0.015625)"/>
      </defs>
      <use xlink:href="#ArialMT-47"/>
      <use xlink:href="#ArialMT-50" transform="translate(77.783203 0)"/>
      <use xlink:href="#ArialMT-54" transform="translate(144.482422 0)"/>
      <use xlink:href="#ArialMT-2d" transform="translate(200.066406 0)"/>
      <use xlink:href="#ArialMT-34" transform="translate(233.367188 0)"/>
      <use xlink:href="#ArialMT-6f" transform="translate(288.982422 0)"/>
     </g>
    </g>
    <g id="patch_51">
     <path d="M 53.808438 55.269062 
L 75.808437 55.269062 
L 75.808437 47.569062 
L 53.808438 47.569062 
z
" style="fill: #ffa16f; stroke: #ffffff; stroke-linejoin: miter"/>
    </g>
    <g id="text_15">
     <!-- Claude-3-sonnet -->
     <g style="fill: #262626" transform="translate(84.608438 55.269062) scale(0.11 -0.11)">
      <defs>
       <path id="ArialMT-33" d="M 269 1209 
L 831 1284 
Q 928 806 1161 595 
Q 1394 384 1728 384 
Q 2125 384 2398 659 
Q 2672 934 2672 1341 
Q 2672 1728 2419 1979 
Q 2166 2231 1775 2231 
Q 1616 2231 1378 2169 
L 1441 2663 
Q 1497 2656 1531 2656 
Q 1891 2656 2178 2843 
Q 2466 3031 2466 3422 
Q 2466 3731 2256 3934 
Q 2047 4138 1716 4138 
Q 1388 4138 1169 3931 
Q 950 3725 888 3313 
L 325 3413 
Q 428 3978 793 4289 
Q 1159 4600 1703 4600 
Q 2078 4600 2393 4439 
Q 2709 4278 2876 4000 
Q 3044 3722 3044 3409 
Q 3044 3113 2884 2869 
Q 2725 2625 2413 2481 
Q 2819 2388 3044 2092 
Q 3269 1797 3269 1353 
Q 3269 753 2831 336 
Q 2394 -81 1725 -81 
Q 1122 -81 723 278 
Q 325 638 269 1209 
z
" transform="scale(0.015625)"/>
      </defs>
      <use xlink:href="#ArialMT-43"/>
      <use xlink:href="#ArialMT-6c" transform="translate(72.216797 0)"/>
      <use xlink:href="#ArialMT-61" transform="translate(94.433594 0)"/>
      <use xlink:href="#ArialMT-75" transform="translate(150.048828 0)"/>
      <use xlink:href="#ArialMT-64" transform="translate(205.664062 0)"/>
      <use xlink:href="#ArialMT-65" transform="translate(261.279297 0)"/>
      <use xlink:href="#ArialMT-2d" transform="translate(316.894531 0)"/>
      <use xlink:href="#ArialMT-33" transform="translate(350.195312 0)"/>
      <use xlink:href="#ArialMT-2d" transform="translate(405.810547 0)"/>
      <use xlink:href="#ArialMT-73" transform="translate(439.111328 0)"/>
      <use xlink:href="#ArialMT-6f" transform="translate(489.111328 0)"/>
      <use xlink:href="#ArialMT-6e" transform="translate(544.726562 0)"/>
      <use xlink:href="#ArialMT-6e" transform="translate(600.341797 0)"/>
      <use xlink:href="#ArialMT-65" transform="translate(655.957031 0)"/>
      <use xlink:href="#ArialMT-74" transform="translate(711.572266 0)"/>
     </g>
    </g>
    <g id="patch_52">
     <path d="M 53.808438 70.962969 
L 75.808437 70.962969 
L 75.808437 63.262969 
L 53.808438 63.262969 
z
" style="fill: #5ac5db; stroke: #ffffff; stroke-linejoin: miter"/>
    </g>
    <g id="text_16">
     <!-- LongCite-8B -->
     <g style="fill: #262626" transform="translate(84.608438 70.962969) scale(0.11 -0.11)">
      <use xlink:href="#ArialMT-4c"/>
      <use xlink:href="#ArialMT-6f" transform="translate(55.615234 0)"/>
      <use xlink:href="#ArialMT-6e" transform="translate(111.230469 0)"/>
      <use xlink:href="#ArialMT-67" transform="translate(166.845703 0)"/>
      <use xlink:href="#ArialMT-43" transform="translate(222.460938 0)"/>
      <use xlink:href="#ArialMT-69" transform="translate(294.677734 0)"/>
      <use xlink:href="#ArialMT-74" transform="translate(316.894531 0)"/>
      <use xlink:href="#ArialMT-65" transform="translate(344.677734 0)"/>
      <use xlink:href="#ArialMT-2d" transform="translate(400.292969 0)"/>
      <use xlink:href="#ArialMT-38" transform="translate(433.59375 0)"/>
      <use xlink:href="#ArialMT-42" transform="translate(489.208984 0)"/>
     </g>
    </g>
    <g id="patch_53">
     <path d="M 53.808438 86.651719 
L 75.808437 86.651719 
L 75.808437 78.951719 
L 53.808438 78.951719 
z
" style="fill: #5387dd; stroke: #ffffff; stroke-linejoin: miter"/>
    </g>
    <g id="text_17">
     <!-- Ours – BoN -->
     <g style="fill: #262626" transform="translate(84.608438 86.651719) scale(0.11 -0.11)">
      <defs>
       <path id="ArialMT-4f" d="M 309 2231 
Q 309 3372 921 4017 
Q 1534 4663 2503 4663 
Q 3138 4663 3647 4359 
Q 4156 4056 4423 3514 
Q 4691 2972 4691 2284 
Q 4691 1588 4409 1038 
Q 4128 488 3612 205 
Q 3097 -78 2500 -78 
Q 1853 -78 1343 234 
Q 834 547 571 1087 
Q 309 1628 309 2231 
z
M 934 2222 
Q 934 1394 1379 917 
Q 1825 441 2497 441 
Q 3181 441 3623 922 
Q 4066 1403 4066 2288 
Q 4066 2847 3877 3264 
Q 3688 3681 3323 3911 
Q 2959 4141 2506 4141 
Q 1863 4141 1398 3698 
Q 934 3256 934 2222 
z
" transform="scale(0.015625)"/>
       <path id="ArialMT-2013" d="M -13 1431 
L -13 1884 
L 3547 1884 
L 3547 1431 
L -13 1431 
z
" transform="scale(0.015625)"/>
       <path id="ArialMT-4e" d="M 488 0 
L 488 4581 
L 1109 4581 
L 3516 984 
L 3516 4581 
L 4097 4581 
L 4097 0 
L 3475 0 
L 1069 3600 
L 1069 0 
L 488 0 
z
" transform="scale(0.015625)"/>
      </defs>
      <use xlink:href="#ArialMT-4f"/>
      <use xlink:href="#ArialMT-75" transform="translate(77.783203 0)"/>
      <use xlink:href="#ArialMT-72" transform="translate(133.398438 0)"/>
      <use xlink:href="#ArialMT-73" transform="translate(166.699219 0)"/>
      <use xlink:href="#ArialMT-20" transform="translate(216.699219 0)"/>
      <use xlink:href="#ArialMT-2013" transform="translate(244.482422 0)"/>
      <use xlink:href="#ArialMT-20" transform="translate(300.097656 0)"/>
      <use xlink:href="#ArialMT-42" transform="translate(327.880859 0)"/>
      <use xlink:href="#ArialMT-6f" transform="translate(394.580078 0)"/>
      <use xlink:href="#ArialMT-4e" transform="translate(450.195312 0)"/>
     </g>
    </g>
    <g id="patch_54">
     <path d="M 53.808438 102.211562 
L 75.808437 102.211562 
L 75.808437 94.511562 
L 53.808438 94.511562 
z
" style="fill: #7d54b2; stroke: #ffffff; stroke-linejoin: miter"/>
    </g>
    <g id="text_18">
     <!-- Ours – SimPO -->
     <g style="fill: #262626" transform="translate(84.608438 102.211562) scale(0.11 -0.11)">
      <defs>
       <path id="ArialMT-53" d="M 288 1472 
L 859 1522 
Q 900 1178 1048 958 
Q 1197 738 1509 602 
Q 1822 466 2213 466 
Q 2559 466 2825 569 
Q 3091 672 3220 851 
Q 3350 1031 3350 1244 
Q 3350 1459 3225 1620 
Q 3100 1781 2813 1891 
Q 2628 1963 1997 2114 
Q 1366 2266 1113 2400 
Q 784 2572 623 2826 
Q 463 3081 463 3397 
Q 463 3744 659 4045 
Q 856 4347 1234 4503 
Q 1613 4659 2075 4659 
Q 2584 4659 2973 4495 
Q 3363 4331 3572 4012 
Q 3781 3694 3797 3291 
L 3216 3247 
Q 3169 3681 2898 3903 
Q 2628 4125 2100 4125 
Q 1550 4125 1298 3923 
Q 1047 3722 1047 3438 
Q 1047 3191 1225 3031 
Q 1400 2872 2139 2705 
Q 2878 2538 3153 2413 
Q 3553 2228 3743 1945 
Q 3934 1663 3934 1294 
Q 3934 928 3725 604 
Q 3516 281 3123 101 
Q 2731 -78 2241 -78 
Q 1619 -78 1198 103 
Q 778 284 539 648 
Q 300 1013 288 1472 
z
" transform="scale(0.015625)"/>
       <path id="ArialMT-6d" d="M 422 0 
L 422 3319 
L 925 3319 
L 925 2853 
Q 1081 3097 1340 3245 
Q 1600 3394 1931 3394 
Q 2300 3394 2536 3241 
Q 2772 3088 2869 2813 
Q 3263 3394 3894 3394 
Q 4388 3394 4653 3120 
Q 4919 2847 4919 2278 
L 4919 0 
L 4359 0 
L 4359 2091 
Q 4359 2428 4304 2576 
Q 4250 2725 4106 2815 
Q 3963 2906 3769 2906 
Q 3419 2906 3187 2673 
Q 2956 2441 2956 1928 
L 2956 0 
L 2394 0 
L 2394 2156 
Q 2394 2531 2256 2718 
Q 2119 2906 1806 2906 
Q 1569 2906 1367 2781 
Q 1166 2656 1075 2415 
Q 984 2175 984 1722 
L 984 0 
L 422 0 
z
" transform="scale(0.015625)"/>
      </defs>
      <use xlink:href="#ArialMT-4f"/>
      <use xlink:href="#ArialMT-75" transform="translate(77.783203 0)"/>
      <use xlink:href="#ArialMT-72" transform="translate(133.398438 0)"/>
      <use xlink:href="#ArialMT-73" transform="translate(166.699219 0)"/>
      <use xlink:href="#ArialMT-20" transform="translate(216.699219 0)"/>
      <use xlink:href="#ArialMT-2013" transform="translate(244.482422 0)"/>
      <use xlink:href="#ArialMT-20" transform="translate(300.097656 0)"/>
      <use xlink:href="#ArialMT-53" transform="translate(327.880859 0)"/>
      <use xlink:href="#ArialMT-69" transform="translate(394.580078 0)"/>
      <use xlink:href="#ArialMT-6d" transform="translate(416.796875 0)"/>
      <use xlink:href="#ArialMT-50" transform="translate(500.097656 0)"/>
      <use xlink:href="#ArialMT-4f" transform="translate(566.796875 0)"/>
     </g>
    </g>
    <g id="patch_55">
     <path d="M 53.808438 117.771406 
L 75.808437 117.771406 
L 75.808437 110.071406 
L 53.808438 110.071406 
z
" style="fill: #c665c7; stroke: #ffffff; stroke-linejoin: miter"/>
    </g>
    <g id="text_19">
     <!-- Ours – SimPO then BoN -->
     <g style="fill: #262626" transform="translate(84.608438 117.771406) scale(0.11 -0.11)">
      <use xlink:href="#ArialMT-4f"/>
      <use xlink:href="#ArialMT-75" transform="translate(77.783203 0)"/>
      <use xlink:href="#ArialMT-72" transform="translate(133.398438 0)"/>
      <use xlink:href="#ArialMT-73" transform="translate(166.699219 0)"/>
      <use xlink:href="#ArialMT-20" transform="translate(216.699219 0)"/>
      <use xlink:href="#ArialMT-2013" transform="translate(244.482422 0)"/>
      <use xlink:href="#ArialMT-20" transform="translate(300.097656 0)"/>
      <use xlink:href="#ArialMT-53" transform="translate(327.880859 0)"/>
      <use xlink:href="#ArialMT-69" transform="translate(394.580078 0)"/>
      <use xlink:href="#ArialMT-6d" transform="translate(416.796875 0)"/>
      <use xlink:href="#ArialMT-50" transform="translate(500.097656 0)"/>
      <use xlink:href="#ArialMT-4f" transform="translate(566.796875 0)"/>
      <use xlink:href="#ArialMT-20" transform="translate(644.580078 0)"/>
      <use xlink:href="#ArialMT-74" transform="translate(672.363281 0)"/>
      <use xlink:href="#ArialMT-68" transform="translate(700.146484 0)"/>
      <use xlink:href="#ArialMT-65" transform="translate(755.761719 0)"/>
      <use xlink:href="#ArialMT-6e" transform="translate(811.376953 0)"/>
      <use xlink:href="#ArialMT-20" transform="translate(866.992188 0)"/>
      <use xlink:href="#ArialMT-42" transform="translate(894.775391 0)"/>
      <use xlink:href="#ArialMT-6f" transform="translate(961.474609 0)"/>
      <use xlink:href="#ArialMT-4e" transform="translate(1017.089844 0)"/>
     </g>
    </g>
    <g id="patch_56">
     <path d="M 53.808438 133.33125 
L 75.808437 133.33125 
L 75.808437 125.63125 
L 53.808438 125.63125 
z
" style="fill: url(#hef53d4ba11); stroke: #ffffff; stroke-linejoin: miter"/>
    </g>
    <g id="text_20">
     <!-- Claude Citations -->
     <g style="fill: #262626" transform="translate(84.608438 133.33125) scale(0.11 -0.11)">
      <use xlink:href="#ArialMT-43"/>
      <use xlink:href="#ArialMT-6c" transform="translate(72.216797 0)"/>
      <use xlink:href="#ArialMT-61" transform="translate(94.433594 0)"/>
      <use xlink:href="#ArialMT-75" transform="translate(150.048828 0)"/>
      <use xlink:href="#ArialMT-64" transform="translate(205.664062 0)"/>
      <use xlink:href="#ArialMT-65" transform="translate(261.279297 0)"/>
      <use xlink:href="#ArialMT-20" transform="translate(316.894531 0)"/>
      <use xlink:href="#ArialMT-43" transform="translate(344.677734 0)"/>
      <use xlink:href="#ArialMT-69" transform="translate(416.894531 0)"/>
      <use xlink:href="#ArialMT-74" transform="translate(439.111328 0)"/>
      <use xlink:href="#ArialMT-61" transform="translate(466.894531 0)"/>
      <use xlink:href="#ArialMT-74" transform="translate(522.509766 0)"/>
      <use xlink:href="#ArialMT-69" transform="translate(550.292969 0)"/>
      <use xlink:href="#ArialMT-6f" transform="translate(572.509766 0)"/>
      <use xlink:href="#ArialMT-6e" transform="translate(628.125 0)"/>
      <use xlink:href="#ArialMT-73" transform="translate(683.740234 0)"/>
     </g>
    </g>
   </g>
  </g>
 </g>
 <defs>
  <clipPath id="p57e1d2da29">
   <rect x="43.908438" y="21.935625" width="801.18" height="371.44375"/>
  </clipPath>
 </defs>
 <defs>
  <pattern id="hef53d4ba11" patternUnits="userSpaceOnUse" x="0" y="0" width="72" height="72">
   <rect x="0" y="0" width="73" height="73" fill="#d6d6d6"/>
   <path d="M -36 36 
L 36 -36 
M -30 42 
L 42 -30 
M -24 48 
L 48 -24 
M -18 54 
L 54 -18 
M -12 60 
L 60 -12 
M -6 66 
L 66 -6 
M 0 72 
L 72 0 
M 6 78 
L 78 6 
M 12 84 
L 84 12 
M 18 90 
L 90 18 
M 24 96 
L 96 24 
M 30 102 
L 102 30 
M 36 108 
L 108 36 
" style="fill: #ffffff; stroke: #ffffff; stroke-width: 1.0; stroke-linecap: butt; stroke-linejoin: miter"/>
  </pattern>
 </defs>
</svg>
